<?xml version="1.0" encoding="UTF-8"?>
<svg id="Layer_1" data-name="Layer 1" xmlns="http://www.w3.org/2000/svg" viewBox="0 0 512 512">
  <defs>
    <style>
      .cls-1 {
        fill: #ebcb8b;
      }

      .cls-2 {
        fill: #2e3440;
      }
    </style>
  </defs>
  <path class="cls-2" d="M452,512H60c-33.14,0-60-26.86-60-60V60C0,26.86,26.86,0,60,0H452c33.14,0,60,26.86,60,60V452c0,33.14-26.86,60-60,60Z"/>
  <path class="cls-1" d="M412.3,282.32L230.71,100.73c-1.13-1.13-2.97-1.13-4.1,0l-32.59,32.59c-1.13,1.13-1.13,2.97,0,4.1l3.77,3.77c5.15,5.15,8.18,12.11,8.11,19.39-.07,7.76-3.45,15-9.47,20.09-4.18,3.54-9.39,5.69-14.85,6.14-7.94,.65-15.52-2.14-21.07-7.69l-4.1-4.1c-1.13-1.13-2.97-1.13-4.1,0l-32.59,32.59c-1.13,1.13-1.13,2.97,0,4.1l43.44,43.44h-61.41c-1.6,0-2.9,1.3-2.9,2.9v46.1c0,1.6,1.3,2.9,2.9,2.9h5.33c7.28,0,14.35,2.78,19.44,7.97,5.44,5.54,8.16,13.05,7.51,20.91-.45,5.45-2.62,10.67-6.15,14.84-5.15,6.08-12.49,9.46-20.34,9.46h-5.8c-1.6,0-2.9,1.3-2.9,2.9v46.1c0,1.6,1.3,2.9,2.9,2.9H358.56c1.6,0,2.9-1.3,2.9-2.9v-46.1c0-1.6-1.3-2.9-2.9-2.9h-5.34c-7.28,0-14.35-2.78-19.44-7.97-5.44-5.54-8.16-13.05-7.51-20.91,.25-3.05,1.05-6.02,2.31-8.78,.19-.4,.38-.8,.58-1.19h0c.27-.51,.54-1.01,.84-1.5,.3-.5,.63-1,.96-1.48,.14-.2,.28-.39,.43-.59,.18-.25,.38-.49,.57-.73,1.07-1.33,2.28-2.58,3.62-3.72,4.18-3.54,9.39-5.69,14.85-6.14,7.94-.65,15.52,2.14,21.07,7.69l4.1,4.1c1.13,1.13,2.97,1.13,4.1,0l32.59-32.59c1.13-1.13,1.13-2.97,0-4.1Zm-68.23,96.75v12.76c0,1.6-1.3,2.9-2.9,2.9H119.14c-1.6,0-2.9-1.3-2.9-2.9v-12.76c0-1.33,.91-2.48,2.21-2.81,7.58-1.92,14.52-5.86,20.2-11.53,8.31-8.31,12.88-19.35,12.88-31.1,0-11.75-4.57-22.79-12.88-31.1-5.67-5.67-12.62-9.6-20.2-11.53-1.29-.33-2.21-1.48-2.21-2.81v-12.76c0-1.6,1.3-2.9,2.9-2.9h222.04c1.6,0,2.9,1.3,2.9,2.9v12.76c0,1.33-.91,2.48-2.21,2.81-7.58,1.92-14.52,5.86-20.2,11.53-2.08,2.08-3.93,4.34-5.53,6.73-4.78,7.16-7.35,15.56-7.35,24.37,0,11.75,4.57,22.79,12.88,31.1,2.09,2.09,4.36,3.95,6.77,5.55,4.12,2.75,8.65,4.76,13.43,5.98,1.29,.33,2.21,1.48,2.21,2.81Zm43.64-92.65l-9.03,9.03c-.94,.94-2.4,1.11-3.55,.43-4.23-2.52-8.84-4.29-13.68-5.26v-32.56c0-1.6-1.3-2.9-2.9-2.9H187.74s-43.44-43.44-43.44-43.44c-1.13-1.13-1.13-2.97,0-4.1l9.03-9.03c.94-.94,2.4-1.11,3.55-.43,6.72,4,14.41,6.13,22.43,6.13,11.75,0,22.79-4.57,31.1-12.88,8.31-8.31,12.88-19.35,12.88-31.1,0-8.02-2.13-15.71-6.13-22.43-.68-1.15-.52-2.6,.43-3.55l9.03-9.03c1.13-1.13,2.97-1.13,4.1,0l157.01,157c1.13,1.13,1.13,2.97,0,4.1Z"/>
</svg>