<svg width="181" height="48" viewBox="0 0 181 48" fill="none" xmlns="http://www.w3.org/2000/svg">
<circle cx="24" cy="24" r="24" fill="#D9D9D9"/>
<path d="M67.104 18L64.448 13.44H62.688V18H61.232V6.848H64.832C65.6747 6.848 66.384 6.992 66.96 7.28C67.5467 7.568 67.984 7.95733 68.272 8.448C68.56 8.93867 68.704 9.49867 68.704 10.128C68.704 10.896 68.48 11.5733 68.032 12.16C67.5947 12.7467 66.9333 13.136 66.048 13.328L68.848 18H67.104ZM62.688 12.272H64.832C65.6213 12.272 66.2133 12.08 66.608 11.696C67.0027 11.3013 67.2 10.7787 67.2 10.128C67.2 9.46667 67.0027 8.95467 66.608 8.592C66.224 8.22933 65.632 8.048 64.832 8.048H62.688V12.272ZM74.7904 18.144C73.969 18.144 73.2224 17.9573 72.5504 17.584C71.889 17.2107 71.3664 16.6827 70.9824 16C70.609 15.3067 70.4224 14.5067 70.4224 13.6C70.4224 12.704 70.6144 11.9147 70.9984 11.232C71.393 10.5387 71.9264 10.0107 72.5984 9.648C73.2704 9.27467 74.0224 9.088 74.8544 9.088C75.6864 9.088 76.4384 9.27467 77.1104 9.648C77.7824 10.0107 78.3104 10.5333 78.6944 11.216C79.089 11.8987 79.2864 12.6933 79.2864 13.6C79.2864 14.5067 79.0837 15.3067 78.6784 16C78.2837 16.6827 77.745 17.2107 77.0624 17.584C76.3797 17.9573 75.6224 18.144 74.7904 18.144ZM74.7904 16.864C75.313 16.864 75.8037 16.7413 76.2624 16.496C76.721 16.2507 77.089 15.8827 77.3664 15.392C77.6544 14.9013 77.7984 14.304 77.7984 13.6C77.7984 12.896 77.6597 12.2987 77.3824 11.808C77.105 11.3173 76.7424 10.9547 76.2944 10.72C75.8464 10.4747 75.361 10.352 74.8384 10.352C74.305 10.352 73.8144 10.4747 73.3664 10.72C72.929 10.9547 72.577 11.3173 72.3104 11.808C72.0437 12.2987 71.9104 12.896 71.9104 13.6C71.9104 14.3147 72.0384 14.9173 72.2944 15.408C72.561 15.8987 72.913 16.2667 73.3504 16.512C73.7877 16.7467 74.2677 16.864 74.7904 16.864ZM80.6568 13.584C80.6568 12.688 80.8381 11.904 81.2008 11.232C81.5634 10.5493 82.0594 10.0213 82.6888 9.648C83.3288 9.27467 84.0434 9.088 84.8328 9.088C85.5154 9.088 86.1501 9.248 86.7368 9.568C87.3234 9.87733 87.7714 10.288 88.0808 10.8V6.16H89.5528V18H88.0808V16.352C87.7928 16.8747 87.3661 17.3067 86.8008 17.648C86.2354 17.9787 85.5741 18.144 84.8168 18.144C84.0381 18.144 83.3288 17.952 82.6888 17.568C82.0594 17.184 81.5634 16.6453 81.2008 15.952C80.8381 15.2587 80.6568 14.4693 80.6568 13.584ZM88.0808 13.6C88.0808 12.9387 87.9474 12.3627 87.6808 11.872C87.4141 11.3813 87.0514 11.008 86.5928 10.752C86.1448 10.4853 85.6488 10.352 85.1048 10.352C84.5608 10.352 84.0648 10.48 83.6168 10.736C83.1688 10.992 82.8114 11.3653 82.5448 11.856C82.2781 12.3467 82.1448 12.9227 82.1448 13.584C82.1448 14.256 82.2781 14.8427 82.5448 15.344C82.8114 15.8347 83.1688 16.2133 83.6168 16.48C84.0648 16.736 84.5608 16.864 85.1048 16.864C85.6488 16.864 86.1448 16.736 86.5928 16.48C87.0514 16.2133 87.4141 15.8347 87.6808 15.344C87.9474 14.8427 88.0808 14.2613 88.0808 13.6ZM93.4693 10.656C93.7253 10.1547 94.0879 9.76533 94.5573 9.488C95.0373 9.21067 95.6186 9.072 96.3013 9.072V10.576H95.9173C94.2853 10.576 93.4693 11.4613 93.4693 13.232V18H92.0133V9.232H93.4693V10.656ZM98.734 7.808C98.4567 7.808 98.222 7.712 98.03 7.52C97.838 7.328 97.742 7.09333 97.742 6.816C97.742 6.53867 97.838 6.304 98.03 6.112C98.222 5.92 98.4567 5.824 98.734 5.824C99.0007 5.824 99.2247 5.92 99.406 6.112C99.598 6.304 99.694 6.53867 99.694 6.816C99.694 7.09333 99.598 7.328 99.406 7.52C99.2247 7.712 99.0007 7.808 98.734 7.808ZM99.438 9.232V18H97.982V9.232H99.438ZM105.536 9.088C106.293 9.088 106.954 9.25333 107.52 9.584C108.096 9.91467 108.522 10.3307 108.8 10.832V9.232H110.272V18.192C110.272 18.992 110.101 19.7013 109.76 20.32C109.418 20.9493 108.928 21.44 108.288 21.792C107.658 22.144 106.922 22.32 106.08 22.32C104.928 22.32 103.968 22.048 103.2 21.504C102.432 20.96 101.978 20.2187 101.84 19.28H103.28C103.44 19.8133 103.77 20.24 104.272 20.56C104.773 20.8907 105.376 21.056 106.08 21.056C106.88 21.056 107.53 20.8053 108.032 20.304C108.544 19.8027 108.8 19.0987 108.8 18.192V16.352C108.512 16.864 108.085 17.2907 107.52 17.632C106.954 17.9733 106.293 18.144 105.536 18.144C104.757 18.144 104.048 17.952 103.408 17.568C102.778 17.184 102.282 16.6453 101.92 15.952C101.557 15.2587 101.376 14.4693 101.376 13.584C101.376 12.688 101.557 11.904 101.92 11.232C102.282 10.5493 102.778 10.0213 103.408 9.648C104.048 9.27467 104.757 9.088 105.536 9.088ZM108.8 13.6C108.8 12.9387 108.666 12.3627 108.4 11.872C108.133 11.3813 107.77 11.008 107.312 10.752C106.864 10.4853 106.368 10.352 105.824 10.352C105.28 10.352 104.784 10.48 104.336 10.736C103.888 10.992 103.53 11.3653 103.264 11.856C102.997 12.3467 102.864 12.9227 102.864 13.584C102.864 14.256 102.997 14.8427 103.264 15.344C103.53 15.8347 103.888 16.2133 104.336 16.48C104.784 16.736 105.28 16.864 105.824 16.864C106.368 16.864 106.864 16.736 107.312 16.48C107.77 16.2133 108.133 15.8347 108.4 15.344C108.666 14.8427 108.8 14.2613 108.8 13.6ZM116.556 18.144C115.735 18.144 114.988 17.9573 114.316 17.584C113.655 17.2107 113.132 16.6827 112.748 16C112.375 15.3067 112.188 14.5067 112.188 13.6C112.188 12.704 112.38 11.9147 112.764 11.232C113.159 10.5387 113.692 10.0107 114.364 9.648C115.036 9.27467 115.788 9.088 116.62 9.088C117.452 9.088 118.204 9.27467 118.876 9.648C119.548 10.0107 120.076 10.5333 120.46 11.216C120.855 11.8987 121.052 12.6933 121.052 13.6C121.052 14.5067 120.849 15.3067 120.444 16C120.049 16.6827 119.511 17.2107 118.828 17.584C118.145 17.9573 117.388 18.144 116.556 18.144ZM116.556 16.864C117.079 16.864 117.569 16.7413 118.028 16.496C118.487 16.2507 118.855 15.8827 119.132 15.392C119.42 14.9013 119.564 14.304 119.564 13.6C119.564 12.896 119.425 12.2987 119.148 11.808C118.871 11.3173 118.508 10.9547 118.06 10.72C117.612 10.4747 117.127 10.352 116.604 10.352C116.071 10.352 115.58 10.4747 115.132 10.72C114.695 10.9547 114.343 11.3173 114.076 11.808C113.809 12.2987 113.676 12.896 113.676 13.6C113.676 14.3147 113.804 14.9173 114.06 15.408C114.327 15.8987 114.679 16.2667 115.116 16.512C115.553 16.7467 116.033 16.864 116.556 16.864ZM130.768 18.112C130.032 18.112 129.371 17.984 128.784 17.728C128.208 17.4613 127.755 17.0987 127.424 16.64C127.093 16.1707 126.923 15.632 126.912 15.024H128.464C128.517 15.5467 128.731 15.9893 129.104 16.352C129.488 16.704 130.043 16.88 130.768 16.88C131.461 16.88 132.005 16.7093 132.4 16.368C132.805 16.016 133.008 15.568 133.008 15.024C133.008 14.5973 132.891 14.2507 132.656 13.984C132.421 13.7173 132.128 13.5147 131.776 13.376C131.424 13.2373 130.949 13.088 130.352 12.928C129.616 12.736 129.024 12.544 128.576 12.352C128.139 12.16 127.76 11.8613 127.44 11.456C127.131 11.04 126.976 10.4853 126.976 9.792C126.976 9.184 127.131 8.64533 127.44 8.176C127.749 7.70667 128.181 7.344 128.736 7.088C129.301 6.832 129.947 6.704 130.672 6.704C131.717 6.704 132.571 6.96533 133.232 7.488C133.904 8.01067 134.283 8.704 134.368 9.568H132.768C132.715 9.14133 132.491 8.768 132.096 8.448C131.701 8.11733 131.179 7.952 130.528 7.952C129.92 7.952 129.424 8.112 129.04 8.432C128.656 8.74133 128.464 9.17867 128.464 9.744C128.464 10.1493 128.576 10.48 128.8 10.736C129.035 10.992 129.317 11.1893 129.648 11.328C129.989 11.456 130.464 11.6053 131.072 11.776C131.808 11.9787 132.4 12.1813 132.848 12.384C133.296 12.576 133.68 12.88 134 13.296C134.32 13.7013 134.48 14.256 134.48 14.96C134.48 15.504 134.336 16.016 134.048 16.496C133.76 16.976 133.333 17.3653 132.768 17.664C132.203 17.9627 131.536 18.112 130.768 18.112ZM138.399 10.432V15.6C138.399 16.0267 138.489 16.3307 138.671 16.512C138.852 16.6827 139.167 16.768 139.615 16.768H140.687V18H139.375C138.564 18 137.956 17.8133 137.551 17.44C137.145 17.0667 136.943 16.4533 136.943 15.6V10.432H135.807V9.232H136.943V7.024H138.399V9.232H140.687V10.432H138.399ZM143.907 10.656C144.163 10.1547 144.525 9.76533 144.995 9.488C145.475 9.21067 146.056 9.072 146.739 9.072V10.576H146.355C144.723 10.576 143.907 11.4613 143.907 13.232V18H142.451V9.232H143.907V10.656ZM147.876 13.584C147.876 12.688 148.057 11.904 148.42 11.232C148.782 10.5493 149.278 10.0213 149.908 9.648C150.548 9.27467 151.257 9.088 152.036 9.088C152.804 9.088 153.47 9.25333 154.036 9.584C154.601 9.91467 155.022 10.3307 155.3 10.832V9.232H156.772V18H155.3V16.368C155.012 16.88 154.58 17.3067 154.004 17.648C153.438 17.9787 152.777 18.144 152.02 18.144C151.241 18.144 150.537 17.952 149.908 17.568C149.278 17.184 148.782 16.6453 148.42 15.952C148.057 15.2587 147.876 14.4693 147.876 13.584ZM155.3 13.6C155.3 12.9387 155.166 12.3627 154.9 11.872C154.633 11.3813 154.27 11.008 153.812 10.752C153.364 10.4853 152.868 10.352 152.324 10.352C151.78 10.352 151.284 10.48 150.836 10.736C150.388 10.992 150.03 11.3653 149.764 11.856C149.497 12.3467 149.364 12.9227 149.364 13.584C149.364 14.256 149.497 14.8427 149.764 15.344C150.03 15.8347 150.388 16.2133 150.836 16.48C151.284 16.736 151.78 16.864 152.324 16.864C152.868 16.864 153.364 16.736 153.812 16.48C154.27 16.2133 154.633 15.8347 154.9 15.344C155.166 14.8427 155.3 14.2613 155.3 13.6ZM161.008 10.432V15.6C161.008 16.0267 161.099 16.3307 161.28 16.512C161.461 16.6827 161.776 16.768 162.224 16.768H163.296V18H161.984C161.173 18 160.565 17.8133 160.16 17.44C159.755 17.0667 159.552 16.4533 159.552 15.6V10.432H158.416V9.232H159.552V7.024H161.008V9.232H163.296V10.432H161.008ZM166.836 10.432V15.6C166.836 16.0267 166.927 16.3307 167.108 16.512C167.289 16.6827 167.604 16.768 168.052 16.768H169.124V18H167.812C167.001 18 166.393 17.8133 165.988 17.44C165.583 17.0667 165.38 16.4533 165.38 15.6V10.432H164.244V9.232H165.38V7.024H166.836V9.232H169.124V10.432H166.836ZM170.344 13.584C170.344 12.688 170.526 11.904 170.888 11.232C171.251 10.5493 171.747 10.0213 172.376 9.648C173.016 9.27467 173.726 9.088 174.504 9.088C175.272 9.088 175.939 9.25333 176.504 9.584C177.07 9.91467 177.491 10.3307 177.768 10.832V9.232H179.24V18H177.768V16.368C177.48 16.88 177.048 17.3067 176.472 17.648C175.907 17.9787 175.246 18.144 174.488 18.144C173.71 18.144 173.006 17.952 172.376 17.568C171.747 17.184 171.251 16.6453 170.888 15.952C170.526 15.2587 170.344 14.4693 170.344 13.584ZM177.768 13.6C177.768 12.9387 177.635 12.3627 177.368 11.872C177.102 11.3813 176.739 11.008 176.28 10.752C175.832 10.4853 175.336 10.352 174.792 10.352C174.248 10.352 173.752 10.48 173.304 10.736C172.856 10.992 172.499 11.3653 172.232 11.856C171.966 12.3467 171.832 12.9227 171.832 13.584C171.832 14.256 171.966 14.8427 172.232 15.344C172.499 15.8347 172.856 16.2133 173.304 16.48C173.752 16.736 174.248 16.864 174.792 16.864C175.336 16.864 175.832 16.736 176.28 16.48C176.739 16.2133 177.102 15.8347 177.368 15.344C177.635 14.8427 177.768 14.2613 177.768 13.6Z" fill="#3A86FF"/>
<path d="M66.848 30.848V39.088C66.848 40.0053 66.5653 40.7413 66 41.296C65.4347 41.84 64.688 42.112 63.76 42.112C62.8213 42.112 62.0693 41.8347 61.504 41.28C60.9387 40.7147 60.656 39.9467 60.656 38.976H62.112C62.1227 39.52 62.2613 39.9627 62.528 40.304C62.8053 40.6453 63.216 40.816 63.76 40.816C64.304 40.816 64.7093 40.656 64.976 40.336C65.2427 40.0053 65.376 39.5893 65.376 39.088V30.848H66.848ZM77.4924 33.232V42H76.0364V40.704C75.759 41.152 75.3697 41.504 74.8684 41.76C74.3777 42.0053 73.8337 42.128 73.2364 42.128C72.5537 42.128 71.9404 41.9893 71.3964 41.712C70.8524 41.424 70.4204 40.9973 70.1004 40.432C69.791 39.8667 69.6364 39.1787 69.6364 38.368V33.232H71.0764V38.176C71.0764 39.04 71.295 39.7067 71.7324 40.176C72.1697 40.6347 72.767 40.864 73.5244 40.864C74.303 40.864 74.9164 40.624 75.3644 40.144C75.8124 39.664 76.0364 38.9653 76.0364 38.048V33.232H77.4924ZM81.4068 30.16V42H79.9508V30.16H81.4068ZM91.4403 33.232L86.1603 46.128H84.6562L86.3843 41.904L82.8483 33.232H84.4643L87.2163 40.336L89.9363 33.232H91.4403ZM96.5455 31.76V30.432H99.5535V42H98.0815V31.76H96.5455ZM104.167 35.984C103.569 35.7493 103.111 35.408 102.791 34.96C102.471 34.512 102.311 33.968 102.311 33.328C102.311 32.752 102.455 32.2347 102.743 31.776C103.031 31.3067 103.457 30.9387 104.023 30.672C104.599 30.3947 105.292 30.256 106.103 30.256C106.913 30.256 107.601 30.3947 108.167 30.672C108.743 30.9387 109.175 31.3067 109.463 31.776C109.761 32.2347 109.911 32.752 109.911 33.328C109.911 33.9467 109.745 34.4907 109.415 34.96C109.084 35.4187 108.631 35.76 108.055 35.984C108.716 36.1867 109.239 36.544 109.623 37.056C110.017 37.5573 110.215 38.1653 110.215 38.88C110.215 39.5733 110.044 40.1813 109.703 40.704C109.361 41.216 108.876 41.616 108.247 41.904C107.628 42.1813 106.913 42.32 106.103 42.32C105.292 42.32 104.577 42.1813 103.959 41.904C103.351 41.616 102.876 41.216 102.535 40.704C102.193 40.1813 102.023 39.5733 102.023 38.88C102.023 38.1653 102.215 37.552 102.599 37.04C102.982 36.528 103.505 36.176 104.167 35.984ZM108.503 33.504C108.503 32.8533 108.289 32.352 107.863 32C107.436 31.648 106.849 31.472 106.103 31.472C105.367 31.472 104.785 31.648 104.359 32C103.932 32.352 103.719 32.8587 103.719 33.52C103.719 34.1173 103.937 34.5973 104.375 34.96C104.823 35.3227 105.399 35.504 106.103 35.504C106.817 35.504 107.393 35.3227 107.831 34.96C108.279 34.5867 108.503 34.1013 108.503 33.504ZM106.103 36.624C105.313 36.624 104.668 36.8107 104.167 37.184C103.665 37.5467 103.414 38.096 103.414 38.832C103.414 39.5147 103.655 40.064 104.135 40.48C104.625 40.896 105.281 41.104 106.103 41.104C106.924 41.104 107.575 40.896 108.055 40.48C108.535 40.064 108.775 39.5147 108.775 38.832C108.775 38.1173 108.529 37.5733 108.039 37.2C107.548 36.816 106.903 36.624 106.103 36.624ZM113.892 39.984L112.1 44.288H111.124L112.292 39.984H113.892ZM119.41 40.832C120.764 39.744 121.826 38.8533 122.594 38.16C123.362 37.456 124.007 36.7253 124.53 35.968C125.063 35.2 125.33 34.448 125.33 33.712C125.33 33.0187 125.159 32.4747 124.818 32.08C124.487 31.6747 123.948 31.472 123.202 31.472C122.476 31.472 121.911 31.7013 121.506 32.16C121.111 32.608 120.898 33.2107 120.866 33.968H119.458C119.5 32.7733 119.863 31.8507 120.546 31.2C121.228 30.5493 122.108 30.224 123.186 30.224C124.284 30.224 125.154 30.528 125.794 31.136C126.444 31.744 126.77 32.5813 126.77 33.648C126.77 34.5333 126.503 35.3973 125.97 36.24C125.447 37.072 124.85 37.808 124.178 38.448C123.506 39.0773 122.647 39.8133 121.602 40.656H127.106V41.872H119.41V40.832ZM128.789 36.096C128.789 34.2613 129.088 32.832 129.685 31.808C130.282 30.7733 131.328 30.256 132.821 30.256C134.304 30.256 135.344 30.7733 135.941 31.808C136.538 32.832 136.837 34.2613 136.837 36.096C136.837 37.9627 136.538 39.4133 135.941 40.448C135.344 41.4827 134.304 42 132.821 42C131.328 42 130.282 41.4827 129.685 40.448C129.088 39.4133 128.789 37.9627 128.789 36.096ZM135.397 36.096C135.397 35.168 135.333 34.384 135.205 33.744C135.088 33.0933 134.837 32.5707 134.453 32.176C134.08 31.7813 133.536 31.584 132.821 31.584C132.096 31.584 131.541 31.7813 131.157 32.176C130.784 32.5707 130.533 33.0933 130.405 33.744C130.288 34.384 130.229 35.168 130.229 36.096C130.229 37.056 130.288 37.8613 130.405 38.512C130.533 39.1627 130.784 39.6853 131.157 40.08C131.541 40.4747 132.096 40.672 132.821 40.672C133.536 40.672 134.08 40.4747 134.453 40.08C134.837 39.6853 135.088 39.1627 135.205 38.512C135.333 37.8613 135.397 37.056 135.397 36.096ZM138.66 40.832C140.014 39.744 141.076 38.8533 141.844 38.16C142.612 37.456 143.257 36.7253 143.78 35.968C144.313 35.2 144.58 34.448 144.58 33.712C144.58 33.0187 144.409 32.4747 144.068 32.08C143.737 31.6747 143.198 31.472 142.452 31.472C141.726 31.472 141.161 31.7013 140.756 32.16C140.361 32.608 140.148 33.2107 140.116 33.968H138.708C138.75 32.7733 139.113 31.8507 139.796 31.2C140.478 30.5493 141.358 30.224 142.436 30.224C143.534 30.224 144.404 30.528 145.044 31.136C145.694 31.744 146.02 32.5813 146.02 33.648C146.02 34.5333 145.753 35.3973 145.22 36.24C144.697 37.072 144.1 37.808 143.428 38.448C142.756 39.0773 141.897 39.8133 140.852 40.656H146.356V41.872H138.66V40.832ZM147.863 40.832C149.218 39.744 150.279 38.8533 151.047 38.16C151.815 37.456 152.46 36.7253 152.983 35.968C153.516 35.2 153.783 34.448 153.783 33.712C153.783 33.0187 153.612 32.4747 153.271 32.08C152.94 31.6747 152.402 31.472 151.655 31.472C150.93 31.472 150.364 31.7013 149.959 32.16C149.564 32.608 149.351 33.2107 149.319 33.968H147.911C147.954 32.7733 148.316 31.8507 148.999 31.2C149.682 30.5493 150.562 30.224 151.639 30.224C152.738 30.224 153.607 30.528 154.247 31.136C154.898 31.744 155.223 32.5813 155.223 33.648C155.223 34.5333 154.956 35.3973 154.423 36.24C153.9 37.072 153.303 37.808 152.631 38.448C151.959 39.0773 151.1 39.8133 150.055 40.656H155.559V41.872H147.863V40.832Z" fill="#4C566A"/>
</svg>
