<svg width="143" height="48" viewBox="0 0 143 48" fill="none" xmlns="http://www.w3.org/2000/svg">
<rect width="143" height="48" rx="4" fill="#3A86FF"/>
<g clip-path="url(#clip0_19_228)">
<path d="M25.5664 20.5357C26.0741 19.8219 26.6646 19.3056 27.2363 18.7673C27.7381 18.2956 28.2254 17.8078 28.7032 17.312C28.9308 17.0743 29.0799 17.1716 29.2508 17.3668C29.8072 18.0009 30.5701 18.1823 30.9592 17.7757C31.3577 17.361 31.1628 16.4051 30.5723 15.9159C30.5039 15.8588 30.4108 15.8325 30.4915 15.8735C31.213 15.091 31.9504 14.2938 32.6857 13.4952C33.6203 12.4787 34.0559 12.5218 34.9606 13.5157C35.7017 14.3311 36.5621 15.0361 37.3519 15.8084C38.3934 16.8271 39.4108 17.8715 40.4544 18.888C41.5344 19.9411 42.6326 20.9774 43.7221 22.0188C44.5723 22.8299 45.3919 23.6753 46.2908 24.43C46.8384 24.8915 47.2195 25.505 47.8297 25.9102C48.2246 26.1727 47.8341 26.3841 47.6304 26.5808C46.7824 27.3977 45.8574 28.1378 45.0923 29.0447C44.6712 29.5405 44.3024 29.4776 43.8974 28.984C43.5752 28.5934 43.0872 28.374 42.6566 28.7317C42.2414 29.0754 42.2035 29.5771 42.4712 30.0978C42.693 30.5285 43.1141 30.5307 43.4363 30.5044C44.125 30.4474 44.1977 30.7647 44.1774 31.3381C44.1374 32.4219 44.1468 33.5094 44.173 34.5925C44.1854 35.0496 44.1024 35.2529 43.573 35.2514C37.2428 35.2332 30.9148 35.2353 24.5846 35.2471C24.1737 35.2471 24.0144 35.1498 24.0246 34.7044C24.053 33.4926 24.0508 32.2815 24.0246 31.0697C24.0144 30.6368 24.1519 30.4656 24.5766 30.5271C24.6755 30.541 24.7759 30.5293 24.877 30.5249C25.4835 30.4905 25.7977 30.0312 25.8624 29.5551C25.9126 29.1748 25.5279 28.7543 25.1112 28.736C23.9446 28.687 23.9628 27.9594 24.021 27.0935C24.0792 26.2393 24.0632 25.3756 24.0232 24.52C23.9992 24.0036 24.1904 23.8793 24.6661 23.8895C25.9417 23.9159 27.2188 23.902 28.4937 23.8939C28.653 23.8939 28.8806 23.9715 28.9286 23.7316C28.9468 23.646 28.8363 23.5041 28.7475 23.431C27.7744 22.6324 26.8799 21.7541 26.0137 20.8414C25.877 20.6973 25.7395 20.5569 25.5664 20.5386V20.5357ZM34.0944 33.3653C36.6472 33.3653 39.1977 33.3675 41.7504 33.361C41.9781 33.361 42.3148 33.4582 42.2981 33.0538C42.2857 32.7203 42.4915 32.1535 42.1512 32.0965C41.5046 31.989 41.3032 31.4888 40.9548 31.1143C39.9774 30.059 40.4574 27.4921 41.7846 27.1176C42.5701 26.896 42.2864 26.4163 42.2923 26.0221C42.3003 25.4224 41.7846 25.6681 41.4966 25.6667C36.5686 25.6506 31.6392 25.6528 26.7112 25.6667C26.4348 25.6667 25.9657 25.4429 25.9177 25.9453C25.8755 26.3965 25.6879 26.9107 26.3286 27.2383C27.2006 27.6859 28.069 29.1346 27.6304 30.206C27.3926 30.783 27.1592 31.45 26.5366 31.7045C25.8232 31.997 25.7694 32.5543 25.9243 33.1116C26.069 33.6337 26.613 33.3493 26.9657 33.3536C29.341 33.3778 31.7184 33.3661 34.0959 33.3661L34.0944 33.3653ZM42.8559 23.766C41.9272 22.8569 41.045 21.9793 40.1439 21.1193C38.8988 19.9279 37.6297 18.7593 36.3904 17.5621C35.6755 16.871 35.1032 16.0271 34.253 15.4764C34.0414 15.3381 33.9446 14.9213 33.5381 15.2687C33.1919 15.5656 32.7984 15.7543 32.9199 16.3342C33.4763 18.9992 31.6021 19.8716 29.469 19.6617C29.1846 19.6332 28.941 19.4848 28.8043 19.7861C28.6675 20.0852 28.3352 20.1378 28.1897 20.4018C28.1192 20.532 28.2421 20.5825 28.3003 20.6373C29.2952 21.5844 30.3148 22.5095 31.2857 23.4815C31.6828 23.8778 32.1199 23.9086 32.6195 23.9064C35.7446 23.8939 38.8712 23.902 41.9955 23.8961C42.2617 23.8939 42.5417 23.9715 42.8559 23.766ZM44.1657 25.2008C44.1657 25.6257 44.1497 25.9204 44.1701 26.213C44.1861 26.4528 44.037 26.7739 44.2712 26.9187C44.5672 27.1015 44.7606 26.7395 44.9744 26.6094C45.3635 26.3739 45.565 26.0667 44.9483 25.7939C44.7068 25.6879 44.5112 25.4685 44.1664 25.2001L44.1657 25.2008Z" fill="white"/>
</g>
<path d="M57.2933 20.896C57.688 20.896 58.0133 21.024 58.2693 21.28C58.5253 21.5253 58.6533 21.8347 58.6533 22.208C58.6533 22.5813 58.5253 22.896 58.2693 23.152C58.0133 23.3973 57.688 23.52 57.2933 23.52C56.888 23.52 56.552 23.3973 56.2853 23.152C56.0293 22.896 55.9013 22.5813 55.9013 22.208C55.9013 21.8347 56.0293 21.5253 56.2853 21.28C56.552 21.024 56.888 20.896 57.2933 20.896ZM56.3013 24.64H58.1893L58.4453 32.368H56.0293L56.3013 24.64ZM68.0536 27.872H63.6056L62.8696 30H60.5176L64.5336 18.816H67.1416L71.1576 30H68.7896L68.0536 27.872ZM67.4456 26.08L65.8296 21.408L64.2136 26.08H67.4456ZM82.2312 30L79.7672 25.648H78.7112V30H76.4712V18.832H80.6632C81.5272 18.832 82.2632 18.9867 82.8712 19.296C83.4792 19.5947 83.9325 20.0053 84.2312 20.528C84.5405 21.04 84.6952 21.616 84.6952 22.256C84.6952 22.992 84.4819 23.6587 84.0552 24.256C83.6285 24.8427 82.9939 25.248 82.1512 25.472L84.8232 30H82.2312ZM78.7112 23.968H80.5832C81.1912 23.968 81.6445 23.824 81.9432 23.536C82.2419 23.2373 82.3912 22.8267 82.3912 22.304C82.3912 21.792 82.2419 21.3973 81.9432 21.12C81.6445 20.832 81.1912 20.688 80.5832 20.688H78.7112V23.968ZM87.8572 20.08C87.4625 20.08 87.1319 19.9573 86.8652 19.712C86.6092 19.456 86.4812 19.1413 86.4812 18.768C86.4812 18.3947 86.6092 18.0853 86.8652 17.84C87.1319 17.584 87.4625 17.456 87.8572 17.456C88.2519 17.456 88.5772 17.584 88.8332 17.84C89.0999 18.0853 89.2332 18.3947 89.2332 18.768C89.2332 19.1413 89.0999 19.456 88.8332 19.712C88.5772 19.9573 88.2519 20.08 87.8572 20.08ZM88.9612 21.136V30H86.7212V21.136H88.9612ZM95.2383 22.976H93.6863V30H91.4143V22.976H90.4063V21.136H91.4143V20.688C91.4143 19.6 91.7236 18.8 92.3423 18.288C92.961 17.776 93.8943 17.536 95.1423 17.568V19.456C94.5983 19.4453 94.2196 19.536 94.0063 19.728C93.793 19.92 93.6863 20.2667 93.6863 20.768V21.136H95.2383V22.976ZM96.1139 25.536C96.1139 24.64 96.2899 23.8453 96.6419 23.152C97.0046 22.4587 97.4899 21.9253 98.0979 21.552C98.7166 21.1787 99.4046 20.992 100.162 20.992C100.823 20.992 101.399 21.1253 101.89 21.392C102.391 21.6587 102.791 21.9947 103.09 22.4V21.136H105.346V30H103.09V28.704C102.802 29.12 102.402 29.4667 101.89 29.744C101.389 30.0107 100.807 30.144 100.146 30.144C99.3993 30.144 98.7166 29.952 98.0979 29.568C97.4899 29.184 97.0046 28.6453 96.6419 27.952C96.2899 27.248 96.1139 26.4427 96.1139 25.536ZM103.09 25.568C103.09 25.024 102.983 24.56 102.77 24.176C102.557 23.7813 102.269 23.4827 101.906 23.28C101.543 23.0667 101.154 22.96 100.738 22.96C100.322 22.96 99.9379 23.0613 99.5859 23.264C99.2339 23.4667 98.9459 23.7653 98.7219 24.16C98.5086 24.544 98.4019 25.0027 98.4019 25.536C98.4019 26.0693 98.5086 26.5387 98.7219 26.944C98.9459 27.3387 99.2339 27.6427 99.5859 27.856C99.9486 28.0693 100.333 28.176 100.738 28.176C101.154 28.176 101.543 28.0747 101.906 27.872C102.269 27.6587 102.557 27.36 102.77 26.976C102.983 26.5813 103.09 26.112 103.09 25.568ZM109.774 22.512C110.062 22.0427 110.435 21.6747 110.894 21.408C111.363 21.1413 111.896 21.008 112.494 21.008V23.36H111.902C111.198 23.36 110.664 23.5253 110.302 23.856C109.95 24.1867 109.774 24.7627 109.774 25.584V30H107.534V21.136H109.774V22.512ZM116.898 18.64L116.642 26.368H114.754L114.482 18.64H116.898ZM115.746 30.112C115.341 30.112 115.005 29.9893 114.738 29.744C114.482 29.488 114.354 29.1733 114.354 28.8C114.354 28.4267 114.482 28.1173 114.738 27.872C115.005 27.616 115.341 27.488 115.746 27.488C116.141 27.488 116.466 27.616 116.722 27.872C116.978 28.1173 117.106 28.4267 117.106 28.8C117.106 29.1733 116.978 29.488 116.722 29.744C116.466 29.9893 116.141 30.112 115.746 30.112Z" fill="white"/>
<defs>
<clipPath id="clip0_19_228">
<rect width="24" height="22.5" fill="white" transform="translate(24 12.75)"/>
</clipPath>
</defs>
</svg>
