<svg width="150" height="150" viewBox="0 0 150 150" fill="none" xmlns="http://www.w3.org/2000/svg">
<path d="M44.3442 150C44.0313 150 43.7164 149.962 43.4053 149.886C42.074 149.557 41.0121 148.554 40.6056 147.244L33.5998 124.656L11.0282 117.645C9.71844 117.238 8.71744 116.176 8.38864 114.844C8.05958 113.512 8.45101 112.105 9.4207 111.135L58.1576 62.3629C58.8917 61.6283 59.8872 61.2155 60.9253 61.2155C61.9633 61.2155 62.9591 61.6283 63.6929 62.3629L95.8485 94.5414C97.3772 96.0712 97.3772 98.5512 95.8485 100.081L47.1119 148.853C46.3692 149.596 45.3698 150 44.3442 150Z" fill="#FF3980"/>
<path d="M105.682 150C104.656 150 103.657 149.596 102.914 148.853L54.177 100.081C52.6484 98.5514 52.6484 96.0714 54.177 94.5416L86.3326 62.3631C87.0667 61.6285 88.0622 61.2156 89.1003 61.2156C90.1383 61.2156 91.1341 61.6285 91.8679 62.3631L140.605 111.135C141.575 112.105 141.966 113.512 141.637 114.844C141.308 116.176 140.307 117.239 138.997 117.645L116.426 124.656L109.42 147.244C109.013 148.555 107.952 149.557 106.62 149.886C106.309 149.962 105.994 150 105.682 150Z" fill="#CC0099"/>
<path d="M109.5 103.574C128.554 84.5064 128.554 53.592 109.5 34.5246C90.4462 15.4572 59.5538 15.4572 40.5 34.5246C21.4462 53.592 21.4462 84.5064 40.5 103.574C59.5538 122.641 90.4462 122.641 109.5 103.574Z" fill="#FFF26C"/>
<path fill-rule="evenodd" clip-rule="evenodd" d="M75.0129 20.2151V117.88C101.89 117.88 123.81 95.9437 123.81 69.0477C123.81 42.1517 101.89 20.2151 75.0129 20.2151Z" fill="#FFDB00"/>
<path d="M75.0128 121.797C45.9473 121.797 22.3008 98.1339 22.3008 69.0477C22.3008 39.9615 45.9473 16.2981 75.0128 16.2981C104.078 16.2981 127.725 39.9615 127.725 69.0477C127.725 98.1339 104.078 121.797 75.0128 121.797ZM75.0128 24.1322C50.264 24.1322 30.1293 44.2812 30.1293 69.0477C30.1293 93.8141 50.264 113.963 75.0128 113.963C99.7616 113.963 119.896 93.8141 119.896 69.0477C119.896 44.2812 99.7616 24.1322 75.0128 24.1322Z" fill="#FDBF00"/>
<path d="M75.0127 106.651C54.2927 106.651 37.4358 89.7825 37.4358 69.0477C37.4358 48.3129 54.2927 31.444 75.0127 31.444C95.7326 31.444 112.59 48.3129 112.59 69.0477C112.59 89.7825 95.7329 106.651 75.0127 106.651Z" fill="#FDBF00"/>
<path d="M75.0129 16.2981V24.1322C99.7617 24.1322 119.896 44.2812 119.896 69.0477C119.896 93.8141 99.7615 113.963 75.0129 113.963V121.797C104.078 121.797 127.725 98.1339 127.725 69.0477C127.725 39.9615 104.078 16.2981 75.0129 16.2981Z" fill="#FF8856"/>
<path d="M75.0129 31.444V106.651C95.7329 106.651 112.59 89.7825 112.59 69.0477C112.59 48.3129 95.7329 31.4443 75.0129 31.444Z" fill="#FF8856"/>
<path d="M86.1406 88.9583C85.68 88.9583 85.2173 88.8771 84.7737 88.7115L75.0126 85.0703L65.2517 88.7115C64.0227 89.1701 62.6456 88.9821 61.5838 88.2102C60.5223 87.4385 59.9177 86.1858 59.9738 84.8741L60.4182 74.4592L53.9414 66.2945C53.1256 65.2662 52.879 63.8973 53.2843 62.6488C53.6896 61.4003 54.6932 60.4378 55.9572 60.0858L65.9926 57.29L71.7505 48.6028C72.4756 47.5086 73.7005 46.8508 75.0123 46.8508C76.3241 46.8508 77.549 47.5086 78.2742 48.6028L84.0321 57.29L94.0675 60.0858C95.3315 60.438 96.3349 61.4003 96.7404 62.6488C97.1459 63.8973 96.899 65.2664 96.0833 66.2945L89.6065 74.459L90.0509 84.8739C90.107 86.1856 89.5024 87.4382 88.4409 88.2099C87.7632 88.7034 86.9558 88.9583 86.1406 88.9583Z" fill="#FFF26C"/>
<path d="M96.741 62.649C96.3355 61.4003 95.3321 60.438 94.0681 60.086L84.0327 57.2903L78.2746 48.603C77.5494 47.5089 76.3247 46.8511 75.0129 46.8511V85.0705L84.7735 88.7115C85.2171 88.8771 85.6801 88.9583 86.1404 88.9583C86.9556 88.9583 87.763 88.7034 88.4412 88.2101C89.5027 87.4385 90.1074 86.1858 90.0513 84.8741L89.6069 74.4592L96.0836 66.2948C96.8996 65.2667 97.1465 63.8975 96.741 62.649Z" fill="#FFDB00"/>
</svg>
