<svg width="150" height="150" viewBox="0 0 150 150" fill="none" xmlns="http://www.w3.org/2000/svg">
<path d="M132.415 100.169C128.383 111.096 122.286 120.597 114.29 128.405C105.188 137.293 93.2705 144.355 78.867 149.393C78.3943 149.557 77.9011 149.692 77.4056 149.792C76.751 149.921 76.0849 149.991 75.4246 150H75.2953C74.5915 150 73.8842 149.929 73.1827 149.792C72.6872 149.692 72.2008 149.557 71.7304 149.396C57.3097 144.366 45.377 137.308 36.2663 128.42C28.2669 120.612 22.1706 111.117 18.1446 100.19C10.8238 80.3228 11.2403 58.4371 11.5757 40.8498L11.5814 40.5797C11.6489 39.1274 11.6924 37.6019 11.7164 35.9174C11.8389 27.6467 18.4147 20.8043 26.6865 20.3431C43.9327 19.3806 57.2742 13.7559 68.6737 2.64477L68.7733 2.55322C70.6661 0.817151 73.0511 -0.0342905 75.4246 0.0011864C77.7134 0.0309411 79.9931 0.881238 81.8184 2.55322L81.9157 2.64477C93.3175 13.7559 106.659 19.3806 123.905 20.3431C132.177 20.8043 138.753 27.6467 138.875 35.9174C138.899 37.6134 138.943 39.1366 139.01 40.5797L139.014 40.6941C139.348 58.3146 139.762 80.2438 132.415 100.169Z" fill="#00DD80"/>
<path d="M132.415 100.169C128.383 111.096 122.286 120.597 114.29 128.405C105.188 137.293 93.2705 144.355 78.8669 149.392C78.3943 149.557 77.9011 149.692 77.4055 149.792C76.7509 149.921 76.0849 149.991 75.4246 150V0.00109863C77.7134 0.0308534 79.993 0.88115 81.8184 2.55313L81.9157 2.64469C93.3174 13.7558 106.659 19.3805 123.905 20.343C132.177 20.8042 138.753 27.6466 138.875 35.9173C138.899 37.6133 138.943 39.1365 139.01 40.5796L139.014 40.694C139.348 58.3145 139.762 80.2437 132.415 100.169Z" fill="#00AA63"/>
<path d="M112.676 75.0001C112.676 95.5686 95.9758 112.311 75.4245 112.385H75.2929C54.6809 112.385 37.9084 95.6132 37.9084 75.0001C37.9084 54.3882 54.6809 37.6168 75.2929 37.6168H75.4245C95.9758 37.6901 112.676 54.4328 112.676 75.0001Z" fill="white"/>
<path d="M112.676 75.0001C112.676 95.5686 95.9759 112.311 75.4246 112.385V37.6168C95.9759 37.6901 112.676 54.4328 112.676 75.0001Z" fill="#E1EBF0"/>
<path d="M92.2611 69.6167L75.4245 86.4556L71.7864 90.0937C70.927 90.9531 69.7997 91.3823 68.6736 91.3823C67.5464 91.3823 66.4203 90.9531 65.5597 90.0937L57.7377 82.2682C56.0188 80.5493 56.0188 77.7649 57.7377 76.0449C59.4543 74.326 62.2421 74.326 63.961 76.0449L68.6736 80.7576L86.0378 63.3934C87.7567 61.6734 90.5445 61.6734 92.2611 63.3934C93.98 65.1123 93.98 67.9001 92.2611 69.6167Z" fill="#B4D2D7"/>
<path d="M92.2611 69.6167L75.4246 86.4556V74.0055L86.0378 63.3934C87.7567 61.6734 90.5445 61.6734 92.2611 63.3934C93.98 65.1123 93.98 67.9001 92.2611 69.6167Z" fill="#6FA5AA"/>
</svg>
