<svg width="150" height="150" viewBox="0 0 150 150" fill="none" xmlns="http://www.w3.org/2000/svg">
<path d="M140.314 99.0551L37.1516 117.246C30.7777 118.369 24.6998 114.113 23.576 107.74L12.2205 43.3403C11.0967 36.9665 15.3526 30.8886 21.7262 29.7648L124.889 11.5743C131.262 10.4505 137.34 14.7065 138.464 21.08L149.82 85.4795C150.944 91.853 146.688 97.9313 140.314 99.0551Z" fill="#3555A2"/>
<path d="M124.889 11.574L73.3079 20.6692L88.733 108.15L140.314 99.0551C146.688 97.9313 150.944 91.8533 149.82 85.4795L138.464 21.08C137.341 14.7062 131.263 10.4502 124.889 11.574Z" fill="#1B3555"/>
<path d="M114.258 138.606H11.7188C5.24678 138.606 0 133.359 0 126.887V63.1025C0 56.6306 5.24678 51.3838 11.7188 51.3838H114.258C120.73 51.3838 125.977 56.6306 125.977 63.1025V126.887C125.977 133.359 120.73 138.606 114.258 138.606Z" fill="#53D8E3"/>
<path d="M114.258 51.3838H62.9883V138.606H114.258C120.73 138.606 125.977 133.359 125.977 126.887V63.1025C125.977 56.6306 120.73 51.3838 114.258 51.3838Z" fill="#18A8C9"/>
<path d="M0 71.3203H125.977V91.2568H0V71.3203Z" fill="#ECF6FD"/>
<path d="M34.8887 119.259H14.9521C12.5252 119.259 10.5576 121.226 10.5576 123.653C10.5576 126.08 12.5252 128.048 14.9521 128.048H34.8887C37.3156 128.048 39.2832 126.08 39.2832 123.653C39.2832 121.226 37.3156 119.259 34.8887 119.259Z" fill="#EAF6FF"/>
<path d="M62.9883 71.3203H125.977V91.2568H62.9883V71.3203Z" fill="#D6E8FE"/>
</svg>
