<svg width="101" height="100" viewBox="0 0 101 100" fill="none" xmlns="http://www.w3.org/2000/svg">
<path d="M29.7296 100C29.521 100 29.311 99.975 29.1036 99.9238C28.2161 99.7044 27.5082 99.0363 27.2371 98.1627L22.5666 83.1041L7.51885 78.4302C6.64571 78.1589 5.97837 77.4505 5.75917 76.5625C5.5398 75.6745 5.80075 74.7365 6.44721 74.0897L38.9385 41.5753C39.4279 41.0855 40.0916 40.8103 40.7836 40.8103C41.4756 40.8103 42.1395 41.0855 42.6287 41.5753L64.0658 63.0276C65.0849 64.0474 65.0849 65.7008 64.0658 66.7206L31.5747 99.2351C31.0795 99.7309 30.4133 100 29.7296 100Z" fill="#FF3980"/>
<path d="M70.621 100C69.9373 100 69.271 99.7307 68.7759 99.235L36.2846 66.7207C35.2655 65.7009 35.2655 64.0476 36.2846 63.0278L57.7217 41.5754C58.211 41.0857 58.8747 40.8104 59.5668 40.8104C60.2588 40.8104 60.9227 41.0857 61.4119 41.5754L93.9031 74.0898C94.5496 74.7366 94.8106 75.6748 94.5912 76.5626C94.372 77.4507 93.7045 78.159 92.8315 78.4303L77.7837 83.1043L73.1132 98.1628C72.8422 99.0364 72.1343 99.7044 71.2467 99.9239C71.0395 99.9749 70.8294 100 70.621 100Z" fill="#CC0099"/>
<path d="M73.1667 69.0492C85.8693 56.3376 85.8693 35.728 73.1667 23.0164C60.4642 10.3048 39.8693 10.3048 27.1667 23.0164C14.4642 35.728 14.4642 56.3376 27.1667 69.0492C39.8693 81.7608 60.4642 81.7608 73.1667 69.0492Z" fill="#FFF26C"/>
<path fill-rule="evenodd" clip-rule="evenodd" d="M50.1753 13.4768V78.5868C68.0932 78.5868 82.7069 63.9625 82.7069 46.0318C82.7069 28.1011 68.0932 13.4768 50.1753 13.4768Z" fill="#FFDB00"/>
<path d="M50.1753 81.1981C30.7983 81.1981 15.0339 65.4225 15.0339 46.0317C15.0339 26.641 30.7983 10.8654 50.1753 10.8654C69.5522 10.8654 85.3166 26.641 85.3166 46.0317C85.3166 65.4225 69.5522 81.1981 50.1753 81.1981ZM50.1753 16.0881C33.6761 16.0881 20.2529 29.5208 20.2529 46.0317C20.2529 62.5427 33.6761 75.9754 50.1753 75.9754C66.6745 75.9754 80.0976 62.5427 80.0976 46.0317C80.0976 29.5208 66.6745 16.0881 50.1753 16.0881Z" fill="#FDBF00"/>
<path d="M50.1753 71.1009C36.3619 71.1009 25.124 59.8549 25.124 46.0318C25.124 32.2086 36.3619 20.9626 50.1753 20.9626C63.9886 20.9626 75.2265 32.2086 75.2265 46.0318C75.2265 59.8549 63.9888 71.1009 50.1753 71.1009Z" fill="#FDBF00"/>
<path d="M50.1753 10.8654V16.0881C66.6745 16.0881 80.0974 29.5208 80.0974 46.0317C80.0974 62.5427 66.6743 75.9754 50.1753 75.9754V81.1981C69.5523 81.1981 85.3164 65.4225 85.3164 46.0317C85.3164 26.641 69.5523 10.8654 50.1753 10.8654Z" fill="#FF8856"/>
<path d="M50.1753 20.9626V71.1009C63.9886 71.1009 75.2264 59.8549 75.2264 46.0318C75.2264 32.2086 63.9886 20.9628 50.1753 20.9626Z" fill="#FF8856"/>
<path d="M57.5939 59.3055C57.2868 59.3055 56.9784 59.2514 56.6826 59.141L50.1752 56.7135L43.668 59.141C42.8486 59.4467 41.9306 59.3214 41.2227 58.8068C40.515 58.2923 40.1119 57.4572 40.1493 56.5828L40.4456 49.6395L36.1277 44.1964C35.5839 43.5108 35.4195 42.5982 35.6897 41.7659C35.9599 40.9335 36.6289 40.2918 37.4716 40.0572L44.1619 38.1933L48.0005 32.4019C48.4839 31.6724 49.3005 31.2339 50.1751 31.2339C51.0496 31.2339 51.8662 31.6724 52.3496 32.4019L56.1882 38.1933L62.8785 40.0572C63.7212 40.292 64.3901 40.9335 64.6604 41.7659C64.9308 42.5982 64.7662 43.511 64.2224 44.1964L59.9045 49.6393L60.2008 56.5826C60.2382 57.457 59.8351 58.2922 59.1274 58.8066C58.6756 59.1356 58.1373 59.3055 57.5939 59.3055Z" fill="#FFF26C"/>
<path d="M64.6606 41.766C64.3903 40.9335 63.7214 40.292 62.8787 40.0573L56.1885 38.1935L52.3497 32.402C51.8663 31.6725 51.0498 31.234 50.1753 31.234V56.7136L56.6824 59.141C56.9781 59.2513 57.2867 59.3055 57.5936 59.3055C58.1371 59.3055 58.6753 59.1356 59.1275 58.8067C59.8352 58.2923 60.2382 57.4572 60.2008 56.5827L59.9046 49.6394L64.2224 44.1965C64.7664 43.5111 64.931 42.5983 64.6606 41.766Z" fill="#FFDB00"/>
</svg>
