<svg width="101" height="100" viewBox="0 0 101 100" fill="none" xmlns="http://www.w3.org/2000/svg">
<path d="M94.0425 66.0367L25.2675 78.1636C21.0183 78.9129 16.9664 76.0756 16.2172 71.8265L8.64684 28.8935C7.89762 24.6443 10.7349 20.5924 14.984 19.8431L83.7589 7.71618C88.0082 6.96696 92.0601 9.80427 92.8093 14.0533L100.38 56.9863C101.129 61.2353 98.2918 65.2875 94.0425 66.0367Z" fill="#3555A2"/>
<path d="M83.7596 7.71606L49.3721 13.7795L59.6555 72.1002L94.043 66.0368C98.2922 65.2875 101.129 61.2356 100.38 56.9864L92.8098 14.0534C92.0607 9.80414 88.0088 6.96684 83.7596 7.71606Z" fill="#1B3555"/>
<path d="M76.6719 92.4039H8.3125C3.99785 92.4039 0.5 88.9061 0.5 84.5914V42.0684C0.5 37.7537 3.99785 34.2559 8.3125 34.2559H76.6719C80.9865 34.2559 84.4844 37.7537 84.4844 42.0684V84.5914C84.4844 88.9061 80.9865 92.4039 76.6719 92.4039Z" fill="#53D8E3"/>
<path d="M76.6719 34.2559H42.4922V92.4039H76.6719C80.9865 92.4039 84.4844 88.9061 84.4844 84.5914V42.0684C84.4844 37.7537 80.9865 34.2559 76.6719 34.2559Z" fill="#18A8C9"/>
<path d="M0.5 47.5469H84.4844V60.8379H0.5V47.5469Z" fill="#ECF6FD"/>
<path d="M23.7593 79.5059H10.4683C8.85029 79.5059 7.53857 80.8176 7.53857 82.4355C7.53857 84.0535 8.85029 85.3652 10.4683 85.3652H23.7593C25.3772 85.3652 26.689 84.0535 26.689 82.4355C26.689 80.8176 25.3772 79.5059 23.7593 79.5059Z" fill="#EAF6FF"/>
<path d="M42.4922 47.5469H84.4844V60.8379H42.4922V47.5469Z" fill="#D6E8FE"/>
</svg>
