<svg width="24" height="24" viewBox="0 0 24 24" fill="none" xmlns="http://www.w3.org/2000/svg">
<g clip-path="url(#clip0_58_278)">
<path d="M1.56644 8.5358C2.07408 7.82203 2.66462 7.30571 3.23626 6.76746C3.73808 6.29575 4.22535 5.80796 4.70317 5.31212C4.93081 5.07443 5.0799 5.1717 5.25081 5.36697C5.80717 6.00103 6.57008 6.18239 6.95917 5.77578C7.35772 5.36111 7.16281 4.40527 6.57226 3.91601C6.5039 3.85897 6.41081 3.83264 6.49153 3.8736C7.21299 3.09108 7.95044 2.29393 8.68572 1.49532C9.62026 0.478777 10.0559 0.521926 10.9606 1.5158C11.7017 2.33123 12.5621 3.03623 13.3519 3.80851C14.3934 4.82725 15.4108 5.87158 16.4544 6.88813C17.5344 7.94124 18.6326 8.97753 19.7221 10.0189C20.5723 10.83 21.3919 11.6754 22.2908 12.4301C22.8384 12.8916 23.2195 13.5052 23.8297 13.9103C24.2246 14.1729 23.8341 14.3842 23.6304 14.581C22.7824 15.3978 21.8574 16.1379 21.0923 17.0448C20.6712 17.5406 20.3024 17.4777 19.8974 16.9841C19.5752 16.5936 19.0872 16.3742 18.6566 16.7318C18.2414 17.0755 18.2035 17.5772 18.4712 18.0979C18.693 18.5287 19.1141 18.5308 19.4363 18.5045C20.125 18.4475 20.1977 18.7649 20.1774 19.3382C20.1374 20.4221 20.1468 21.5095 20.173 22.5926C20.1854 23.0497 20.1024 23.253 19.573 23.2516C13.2428 23.2333 6.91481 23.2355 0.584624 23.2472C0.173715 23.2472 0.0144425 23.1499 0.0246243 22.7045C0.0529879 21.4927 0.0508061 20.2816 0.0246243 19.0698C0.0144425 18.6369 0.151897 18.4658 0.576624 18.5272C0.675533 18.5411 0.775897 18.5294 0.876988 18.525C1.48353 18.4906 1.79772 18.0314 1.86244 17.5553C1.91262 17.175 1.5279 16.7545 1.11117 16.7362C-0.0553758 16.6872 -0.0371939 15.9595 0.0209879 15.0936C0.0791697 14.2394 0.0631697 13.3757 0.0231697 12.5201C-0.000830262 12.0038 0.190442 11.8794 0.666079 11.8897C1.94172 11.916 3.21881 11.9021 4.49372 11.8941C4.65299 11.8941 4.88062 11.9716 4.92862 11.7317C4.94681 11.6461 4.83626 11.5043 4.74753 11.4311C3.77444 10.6325 2.8799 9.7542 2.01372 8.8415C1.87699 8.69743 1.73953 8.55701 1.56644 8.53873V8.5358ZM10.0944 21.3655C12.6472 21.3655 15.1977 21.3677 17.7504 21.3611C17.9781 21.3611 18.3148 21.4583 18.2981 21.0539C18.2857 20.7204 18.4915 20.1537 18.1512 20.0966C17.5046 19.9891 17.3032 19.4889 16.9548 19.1144C15.9774 18.0591 16.4574 15.4922 17.7846 15.1177C18.5701 14.8962 18.2864 14.4164 18.2923 14.0222C18.3003 13.4225 17.7846 13.6683 17.4966 13.6668C12.5686 13.6507 7.63917 13.6529 2.71117 13.6668C2.43481 13.6668 1.96572 13.443 1.91772 13.9454C1.87553 14.3967 1.6879 14.9108 2.32862 15.2384C3.20062 15.686 4.06899 17.1347 3.63044 18.2061C3.39262 18.7832 3.15917 19.4501 2.53662 19.7046C1.82317 19.9972 1.76935 20.5544 1.92426 21.1117C2.06899 21.6339 2.61299 21.3494 2.96572 21.3538C5.34099 21.3779 7.71844 21.3662 10.0959 21.3662L10.0944 21.3655ZM18.8559 11.7661C17.9272 10.857 17.045 9.97944 16.1439 9.1194C14.8988 7.92807 13.6297 6.75941 12.3904 5.56223C11.6755 4.87113 11.1032 4.02717 10.253 3.47649C10.0414 3.33826 9.94462 2.92141 9.53808 3.26879C9.1919 3.56571 8.79844 3.75439 8.9199 4.33433C9.47626 6.99929 7.60208 7.87176 5.46899 7.66187C5.18462 7.63335 4.94099 7.48489 4.80426 7.78619C4.66753 8.08531 4.33517 8.13796 4.18972 8.40197C4.11917 8.53215 4.24208 8.58261 4.30026 8.63746C5.29517 9.58453 6.31481 10.5097 7.28572 11.4816C7.68281 11.878 8.1199 11.9087 8.61953 11.9065C11.7446 11.8941 14.8712 11.9021 17.9955 11.8963C18.2617 11.8941 18.5417 11.9716 18.8559 11.7661ZM20.1657 13.2009C20.1657 13.6258 20.1497 13.9206 20.1701 14.2131C20.1861 14.453 20.037 14.774 20.2712 14.9188C20.5672 15.1017 20.7606 14.7396 20.9744 14.6095C21.3635 14.374 21.565 14.0668 20.9483 13.794C20.7068 13.688 20.5112 13.4686 20.1664 13.2002L20.1657 13.2009Z" fill="white"/>
</g>
<defs>
<clipPath id="clip0_58_278">
<rect width="24" height="22.5" fill="white" transform="translate(0 0.75)"/>
</clipPath>
</defs>
</svg>
