<svg width="36" height="36" viewBox="0 0 36 36" fill="none" xmlns="http://www.w3.org/2000/svg">
<rect width="36" height="36" rx="4" fill="#4C566A"/>
<path d="M31.5 10.0803C31.5 8.65754 30.3853 7.5 29.0153 7.5H6.9847C5.61491 7.50005 4.50047 8.65705 4.5 10.0807V10.0812V25.9188C4.5 27.3594 5.62599 28.5 6.98554 28.5H29.0144C30.4015 28.5 31.4999 27.3307 31.4999 25.9188V10.0812C31.4999 10.0811 31.4999 10.081 31.4999 10.0809C31.5 10.0807 31.5 10.0805 31.5 10.0803ZM6.9847 9.14297H29.0153C29.513 9.14297 29.918 9.5635 29.918 10.0817C29.918 10.357 29.7862 10.6126 29.5652 10.7655L18.5012 18.4257C18.1968 18.6364 17.8033 18.6365 17.4988 18.4257C17.4988 18.4257 6.43457 10.7653 6.43478 10.7655C6.43483 10.7656 6.43462 10.7654 6.43457 10.7653C6.21382 10.6126 6.08204 10.357 6.08204 10.0803C6.08204 9.56345 6.48699 9.14297 6.9847 9.14297ZM29.0145 26.8571H6.98554C6.49305 26.8571 6.08204 26.4436 6.08204 25.9188V12.4959L16.6212 19.7926C17.04 20.0825 17.52 20.2275 18 20.2275C18.48 20.2275 18.9601 20.0825 19.3789 19.7926L29.918 12.4959V25.9189C29.918 26.4303 29.5198 26.8571 29.0145 26.8571Z" fill="white"/>
</svg>
