<svg width="101" height="100" viewBox="0 0 101 100" fill="none" xmlns="http://www.w3.org/2000/svg">
<path d="M89.1097 66.7795C86.4219 74.064 82.3569 80.3979 77.0263 85.6035C70.9586 91.5285 63.0134 96.2366 53.411 99.595C53.0959 99.7049 52.7671 99.7949 52.4367 99.8613C52.0003 99.9475 51.5563 99.9941 51.1161 100H51.0299C50.5606 100 50.0892 99.9529 49.6215 99.8613C49.2911 99.7949 48.9669 99.7049 48.6533 99.5973C39.0395 96.2442 31.0843 91.5384 25.0105 85.6134C19.6776 80.4079 15.6134 74.0777 12.9294 66.7932C8.04886 53.5485 8.32657 38.9581 8.55011 27.2332L8.55393 27.0532C8.59894 26.085 8.62793 25.068 8.64395 23.9449C8.72559 18.4312 13.1094 13.8696 18.624 13.5621C30.1215 12.9205 39.0158 9.17061 46.6155 1.76322L46.6819 1.70219C47.9438 0.544808 49.5337 -0.0228196 51.1161 0.000831623C52.642 0.0206681 54.1617 0.587532 55.3786 1.70219L55.4435 1.76322C63.0446 9.17061 71.939 12.9205 83.4365 13.5621C88.951 13.8696 93.3349 18.4312 93.4165 23.9449C93.4325 25.0756 93.4615 26.0911 93.5065 27.0532L93.5088 27.1295C93.7316 38.8764 94.0078 53.4959 89.1097 66.7795Z" fill="#00DD80"/>
<path d="M89.1099 66.7794C86.422 74.0639 82.3571 80.3978 77.0264 85.6034C70.9588 91.5284 63.0135 96.2365 53.4111 99.5949C53.096 99.7048 52.7672 99.7948 52.4369 99.8612C52.0005 99.9474 51.5564 99.994 51.1162 100V0.000732422C52.6421 0.0205689 54.1619 0.587433 55.3788 1.70209L55.4436 1.76312C63.0448 9.17051 71.9391 12.9204 83.4366 13.562C88.9512 13.8695 93.335 18.4311 93.4167 23.9448C93.4327 25.0755 93.4617 26.091 93.5067 27.0531L93.509 27.1294C93.7318 38.8763 94.0079 53.4958 89.1099 66.7794Z" fill="#00AA63"/>
<path d="M75.9506 50.0001C75.9506 63.7124 64.8171 74.8742 51.1162 74.923H51.0284C37.2871 74.923 26.1055 63.7422 26.1055 50.0001C26.1055 36.2588 37.2871 25.0779 51.0284 25.0779H51.1162C64.8171 25.1267 75.9506 36.2885 75.9506 50.0001Z" fill="white"/>
<path d="M75.9507 50.0001C75.9507 63.7124 64.8171 74.8742 51.1162 74.923V25.0779C64.8171 25.1267 75.9507 36.2885 75.9507 50.0001Z" fill="#E1EBF0"/>
<path d="M62.3404 46.4111L51.116 57.637L48.6906 60.0624C48.1177 60.6354 47.3662 60.9215 46.6154 60.9215C45.8639 60.9215 45.1132 60.6354 44.5395 60.0624L39.3248 54.8454C38.1788 53.6995 38.1788 51.8432 39.3248 50.6965C40.4692 49.5506 42.3277 49.5506 43.4737 50.6965L46.6154 53.8383L58.1915 42.2622C59.3375 41.1155 61.196 41.1155 62.3404 42.2622C63.4863 43.4082 63.4863 45.2667 62.3404 46.4111Z" fill="#B4D2D7"/>
<path d="M62.3406 46.4111L51.1162 57.637V49.337L58.1917 42.2622C59.3377 41.1155 61.1962 41.1155 62.3406 42.2622C63.4865 43.4082 63.4865 45.2667 62.3406 46.4111Z" fill="#6FA5AA"/>
</svg>
