<svg width="36" height="36" viewBox="0 0 36 36" fill="none" xmlns="http://www.w3.org/2000/svg">
<g clip-path="url(#clip0_73_301)">
<path d="M30.7266 0H5.27344C2.36591 0 0 2.36591 0 5.27344V30.7266C0 33.6341 2.36591 36 5.27344 36H30.7266C33.6341 36 36 33.6341 36 30.7266V5.27344C36 2.36591 33.6341 0 30.7266 0ZM18.0703 27.4219C12.8362 27.4219 8.57812 23.1638 8.57812 17.9297C8.57812 12.6955 12.8362 8.4375 18.0703 8.4375C23.3045 8.4375 27.5625 12.6955 27.5625 17.9297C27.5625 23.1638 23.3045 27.4219 18.0703 27.4219ZM28.6172 10.5469C26.8726 10.5469 25.4531 9.12744 25.4531 7.38281C25.4531 5.63818 26.8726 4.21875 28.6172 4.21875C30.3618 4.21875 31.7812 5.63818 31.7812 7.38281C31.7812 9.12744 30.3618 10.5469 28.6172 10.5469Z" fill="#4C566A"/>
<path d="M28.6172 6.32812C28.0352 6.32812 27.5625 6.80081 27.5625 7.38281C27.5625 7.96481 28.0352 8.4375 28.6172 8.4375C29.1992 8.4375 29.6719 7.96481 29.6719 7.38281C29.6719 6.80081 29.1992 6.32812 28.6172 6.32812Z" fill="#4C566A"/>
<path d="M18.0703 10.5469C13.9999 10.5469 10.6875 13.8593 10.6875 17.9297C10.6875 22.0001 13.9999 25.3125 18.0703 25.3125C22.1407 25.3125 25.4531 22.0001 25.4531 17.9297C25.4531 13.8593 22.1407 10.5469 18.0703 10.5469Z" fill="#4C566A"/>
</g>
<defs>
<clipPath id="clip0_73_301">
<rect width="36" height="36" fill="white"/>
</clipPath>
</defs>
</svg>
